# xmcd CD database file generated by Grip 2.7
# 
# Track frame offsets:
#       150
#       31325
#       53372
#       77635
#       111755
#       132592
#       156925
#       191790
#       222567
# 
# Disc length: 3748 seconds
# 
# Revision: 3
# Processed by: cddbd v1.4b41PL1 Copyright (c) Steve Scherf et al.
# Submitted via: Grip 2.7
# 
DISCID=7b0ea209
DTITLE=Pinetop Perkins - Born In The Delta
DYEAR=1900
DGENRE=
TTITLE0=Everyday I Have The Blues
TTITLE1=For You My Love
TTITLE2=Look On Yonder Wall
TTITLE3=Blues After Hours
TTITLE4=Murmur Low
TTITLE5=How Long, How Long Blues
TTITLE6=Baby, What You Want Me To Do?
TTITLE7=Blues Oh Blues
TTITLE8=(Multimedia)
EXTD=
EXTT0=
EXTT1=
EXTT2=
EXTT3=
EXTT4=
EXTT5=
EXTT6=
EXTT7=
EXTT8=
PLAYORDER=
